<?xml version="1.0" encoding="UTF-8" standalone="no"?>
<!-- Created with Inkscape (http://www.inkscape.org/) -->

<svg
   xmlns:dc="http://purl.org/dc/elements/1.1/"
   xmlns:cc="http://creativecommons.org/ns#"
   xmlns:rdf="http://www.w3.org/1999/02/22-rdf-syntax-ns#"
   xmlns:svg="http://www.w3.org/2000/svg"
   xmlns="http://www.w3.org/2000/svg"
   version="1.1"
   width="300"
   height="38.758091"
   id="svg6118">
  <defs
     id="defs6120" />
  <metadata
     id="metadata6123">
    <rdf:RDF>
      <cc:Work
         rdf:about="">
        <dc:format>image/svg+xml</dc:format>
        <dc:type
           rdf:resource="http://purl.org/dc/dcmitype/StillImage" />
        <dc:title></dc:title>
      </cc:Work>
    </rdf:RDF>
  </metadata>
  <g
     transform="translate(-225,-512.98314)"
     id="layer1">
    <g
       transform="translate(225,488.11)"
       id="g6047">
      <g
         transform="matrix(2.0031155,0,0,-2.0031155,217.46343,53.090833)"
         id="g1524">
        <path
           d="m 0,0 -1.707,-5.262 3.036,0 L 3.854,0 0,0 Z"
           id="path1526"
           style="fill:#137ac9;fill-opacity:1;fill-rule:nonzero;stroke:none" />
      </g>
      <g
         transform="matrix(2.0031155,0,0,-2.0031155,70.276508,33.833265)"
         id="g1528">
        <path
           d="m 0,0 c -3.927,0 -7.151,-2.642 -7.151,-6.707 0,-4.15 3.208,-6.638 7.151,-6.638 3.947,0 7.154,2.488 7.154,6.638 C 7.154,-2.642 3.929,0 0,0 m 0,-4.254 c 1.493,0 2.42,-1.148 2.42,-2.521 0,-1.475 -0.995,-2.486 -2.42,-2.486 -1.422,0 -2.418,1.011 -2.418,2.486 0,1.373 0.927,2.521 2.418,2.521"
           id="path1530"
           style="fill:#137ac9;fill-opacity:1;fill-rule:nonzero;stroke:none" />
      </g>
      <g
         transform="matrix(2.0031155,0,0,-2.0031155,85.552267,34.242109)"
         id="g1532">
        <path
           d="M 0,0 4.511,0 8.476,-6.736 8.473,0 l 4.494,0 0,-12.935 -4.494,0 -4.002,6.572 0.023,-6.572 -4.494,0 L 0,0 Z"
           id="path1534"
           style="fill:#137ac9;fill-opacity:1;fill-rule:nonzero;stroke:none" />
      </g>
      <g
         transform="matrix(2.0031155,0,0,-2.0031155,115.0219,50.87739)"
         id="g1536">
        <path
           d="M 0,0 0.239,-0.188 C 1.081,-0.84 2.093,-1.37 3.172,-1.37 c 0.463,0 1.202,0.188 1.202,0.771 0,0.584 -0.618,0.635 -1.046,0.72 l -0.945,0.17 c -1.834,0.328 -3.378,1.408 -3.378,3.434 0,3.069 2.795,4.784 5.609,4.784 1.473,0 2.83,-0.36 4.098,-1.131 L 7.444,4.067 C 6.638,4.615 5.729,5.044 4.717,5.044 4.305,5.044 3.704,4.889 3.704,4.359 c 0,-0.48 0.584,-0.55 0.943,-0.634 L 5.711,3.483 c 1.989,-0.446 3.43,-1.509 3.43,-3.704 0,-3.089 -2.812,-4.615 -5.608,-4.615 -1.63,0 -3.516,0.446 -4.975,1.183 L 0,0 Z"
           id="path1538"
           style="fill:#137ac9;fill-opacity:1;fill-rule:nonzero;stroke:none" />
      </g>
      <g
         transform="matrix(2.0031155,0,0,-2.0031155,133.05675,34.242109)"
         id="g1540">
        <path
           d="m 0,0 9.882,0 0,-4.205 -2.592,0.122 0,-8.852 -4.701,0 0,8.852 L 0,-4.205 0,0 Z"
           id="path1542"
           style="fill:#137ac9;fill-opacity:1;fill-rule:nonzero;stroke:none" />
      </g>
      <g
         transform="matrix(2.0031155,0,0,-2.0031155,153.81564,34.242109)"
         id="g1544">
        <path
           d="m 0,0 8.697,0 0,-3.535 -3.963,0 0,-1.236 3.62,0 0,-3.36 -3.62,0 0,-1.27 4.098,0 0,-3.534 -8.832,0 L 0,0 Z"
           id="path1546"
           style="fill:#137ac9;fill-opacity:1;fill-rule:nonzero;stroke:none" />
      </g>
      <g
         transform="matrix(2.0031155,0,0,-2.0031155,172.38552,60.152616)"
         id="g1548">
        <path
           d="m 0,0 4.596,0 0,4.151 0.087,0 L 6.741,0 12.161,0 9.346,4.203 C 9.074,4.612 8.729,5.136 8.729,5.136 l -0.17,-0.06 c 1.75,0.585 2.504,1.408 2.504,3.363 0,3.259 -2.47,4.496 -5.385,4.496 L 0,12.935 0,0 z m 4.596,9.4 0.361,0 c 0.806,0 1.509,-0.12 1.509,-1.115 0,-0.96 -0.77,-1.08 -1.543,-1.08 l -0.327,0 L 4.596,9.4 Z"
           id="path1550"
           style="fill:#137ac9;fill-opacity:1;fill-rule:nonzero;stroke:none" />
      </g>
      <g
         transform="matrix(2.0031155,0,0,-2.0031155,197.75798,50.87739)"
         id="g1552">
        <path
           d="M 0,0 0.241,-0.188 C 1.083,-0.84 2.093,-1.37 3.174,-1.37 c 0.463,0 1.202,0.188 1.202,0.771 0,0.584 -0.619,0.635 -1.047,0.72 l -0.944,0.17 c -1.836,0.328 -3.378,1.408 -3.378,3.434 0,3.069 2.794,4.784 5.61,4.784 1.476,0 2.83,-0.36 4.1,-1.131 L 7.447,4.067 C 6.64,4.615 5.731,5.044 4.718,5.044 c -0.41,0 -1.013,-0.155 -1.013,-0.685 0,-0.48 0.586,-0.55 0.946,-0.634 L 5.713,3.483 c 1.99,-0.446 3.433,-1.509 3.433,-3.704 0,-3.089 -2.813,-4.615 -5.613,-4.615 -1.628,0 -3.515,0.446 -4.972,1.183 L 0,0 Z"
           id="path1554"
           style="fill:#137ac9;fill-opacity:1;fill-rule:nonzero;stroke:none" />
      </g>
      <path
         d="m 232.02668,34.242509 9.41665,0 0,25.910299 -9.41665,0 L 232.02668,34.242509 Z"
         id="path1556"
         style="fill:#137ac9;fill-opacity:1;fill-rule:nonzero;stroke:none" />
      <g
         transform="matrix(2.0031155,0,0,-2.0031155,242.49657,34.242109)"
         id="g1558">
        <path
           d="M 0,0 4.512,0 8.482,-6.738 8.474,0 l 4.494,0 0,-12.935 -4.494,0 -3.974,6.55 -0.005,-6.55 -4.495,0 L 0,0 Z"
           id="path1560"
           style="fill:#137ac9;fill-opacity:1;fill-rule:nonzero;stroke:none" />
      </g>
      <g
         transform="matrix(2.0031155,0,0,-2.0031155,289.24108,44.758465)"
         id="g1562">
        <path
           d="m 0,0 c -0.754,0.704 -1.699,1.304 -2.762,1.304 -1.407,0 -2.555,-1.116 -2.555,-2.521 0,-1.425 1.217,-2.523 2.624,-2.523 1.08,0 1.939,0.464 2.693,1.201 l -0.137,-4.837 c -0.756,-0.36 -2.505,-0.515 -3.345,-0.515 -3.688,0 -6.57,2.865 -6.57,6.553 0,3.774 2.968,6.792 6.757,6.792 1.064,0 2.162,-0.189 3.158,-0.531 L 0,0 Z"
           id="path1564"
           style="fill:#137ac9;fill-opacity:1;fill-rule:nonzero;stroke:none" />
      </g>
      <g
         transform="matrix(2.0031155,0,0,-2.0031155,300,56.304823)"
         id="g1566">
        <path
           d="m 0,0 c 0,-1.354 -1.305,-2.127 -2.556,-2.127 -1.253,0 -2.557,0.773 -2.557,2.127 0,1.374 1.304,2.179 2.557,2.179 C -1.305,2.179 0,1.374 0,0"
           id="path1568"
           style="fill:#137ac9;fill-opacity:1;fill-rule:nonzero;stroke:none" />
      </g>
      <g
         transform="matrix(2.0031155,0,0,-2.0031155,48.583568,24.873137)"
         id="g1570">
        <path
           d="m 0,0 -7.839,0 -2.09,-4.602 -2.117,4.602 -8.694,0 -3.514,-17.568 8.775,0 0.669,4.068 2.068,-4.068 5.388,0 2.264,4.092 0.63,-4.092 8.787,0 L 0.757,0 0,0 Z"
           id="path1572"
           style="fill:#137ac9;fill-opacity:1;fill-rule:nonzero;stroke:none" />
      </g>
      <g
         transform="matrix(2.0031155,0,0,-2.0031155,43.193385,43.458635)"
         id="g1574">
        <path
           d="m 0,0 c 0,0 -2.427,-2.688 -7.321,-2.688 -4.892,0 -7.319,2.688 -7.319,2.688 0,0 2.427,2.689 7.319,2.689 C -2.427,2.689 0,0 0,0"
           id="path1576"
           style="fill:#ffffff;fill-opacity:1;fill-rule:nonzero;stroke:none" />
      </g>
      <g
         transform="matrix(2.0031155,0,0,-2.0031155,33.170997,43.458635)"
         id="g1578">
        <path
           d="m 0,0 c 0,-1.276 -1.037,-2.315 -2.317,-2.315 -1.279,0 -2.316,1.039 -2.316,2.315 0,1.28 1.037,2.317 2.316,2.317 C -1.037,2.317 0,1.28 0,0"
           id="path1580"
           style="fill:#060000;fill-opacity:1;fill-rule:nonzero;stroke:none" />
      </g>
    </g>
  </g>
</svg>
